<?xml version="1.0" standalone="no"?><!DOCTYPE svg PUBLIC "-//W3C//DTD SVG 1.1//EN" "http://www.w3.org/Graphics/SVG/1.1/DTD/svg11.dtd"><svg t="1554023374790" class="icon" style="" viewBox="0 0 1024 1024" version="1.1" xmlns="http://www.w3.org/2000/svg" p-id="4616" xmlns:xlink="http://www.w3.org/1999/xlink" width="200" height="200"><defs><style type="text/css"></style></defs><path d="M128 249.6m-64 0a2 2 0 1 0 128 0 2 2 0 1 0-128 0Z" p-id="4617"></path><path d="M128 508.8m-64 0a2 2 0 1 0 128 0 2 2 0 1 0-128 0Z" p-id="4618"></path><path d="M128 764.8m-64 0a2 2 0 1 0 128 0 2 2 0 1 0-128 0Z" p-id="4619"></path><path d="M928 281.6 352 281.6c-16 0-32-12.8-32-32l0 0c0-16 12.8-32 32-32l576 0c16 0 32 12.8 32 32l0 0C960 265.6 947.2 281.6 928 281.6z" p-id="4620"></path><path d="M928 540.8 352 540.8c-16 0-32-12.8-32-32l0 0c0-19.2 12.8-32 32-32l576 0c16 0 32 12.8 32 32l0 0C960 524.8 947.2 540.8 928 540.8z" p-id="4621"></path><path d="M928 796.8 352 796.8c-16 0-32-12.8-32-32l0 0c0-16 12.8-32 32-32l576 0c16 0 32 16 32 32l0 0C960 780.8 947.2 796.8 928 796.8z" p-id="4622"></path></svg>