<?xml version="1.0" standalone="no"?><!DOCTYPE svg PUBLIC "-//W3C//DTD SVG 1.1//EN" "http://www.w3.org/Graphics/SVG/1.1/DTD/svg11.dtd"><svg t="1554456346284" class="icon" style="" viewBox="0 0 1024 1024" version="1.1" xmlns="http://www.w3.org/2000/svg" p-id="9258" xmlns:xlink="http://www.w3.org/1999/xlink" width="16" height="16"><defs><style type="text/css"></style></defs><path d="M511.9998 511.9998m-511.9998 0a511.9998 511.9998 0 1 0 1023.9996 0 511.9998 511.9998 0 1 0-1023.9996 0Z" fill="#2D4452" p-id="9259"></path><path d="M963.839624 752.839706c-0.264-0.672-0.528-1.343999-0.824-2.015999-0.552-1.391999-1.104-2.791999-1.68-4.167999-0.544-1.343999-1.072-2.703999-1.631999-4.039998-0.552-1.383999-1.104-2.783999-1.679999-4.159998-0.512-1.295999-1.024-2.607999-1.56-3.903999-0.576-1.423999-1.144-2.863999-1.743999-4.287998-0.536-1.343999-1.072-2.711999-1.631999-4.039999-0.56-1.391999-1.104-2.783999-1.68-4.159998-0.536-1.351999-1.072-2.711999-1.631999-4.047998-0.544-1.367999-1.088-2.743999-1.655999-4.103999-0.56-1.383999-1.104-2.791999-1.672-4.151998-0.544-1.359999-1.08-2.719999-1.639999-4.055999-0.552-1.383999-1.104-2.783999-1.671999-4.167998-0.544-1.343999-1.08-2.703999-1.64-4.031998-0.552-1.391999-1.104-2.791999-1.671999-4.159999-0.544-1.351999-1.08-2.711999-1.639999-4.047998-0.552-1.383999-1.104-2.783999-1.672-4.159999-0.544-1.343999-1.08-2.703999-1.639999-4.047998-0.544-1.367999-1.08-2.743999-1.656-4.103998-0.528-1.335999-1.048-2.687999-1.607999-4.015999-0.56-1.391999-1.112-2.807999-1.687999-4.175998-0.56-1.375999-1.112-2.783999-1.688-4.151999-0.536-1.351999-1.064-2.711999-1.623999-4.047998-0.56-1.383999-1.112-2.791999-1.679999-4.167998-0.544-1.343999-1.072-2.703999-1.632-4.031999-0.56-1.391999-1.112-2.791999-1.679999-4.159998-0.544-1.351999-1.072-2.719999-1.631999-4.047999a314.639877 314.639877 0 0 0-1.656-4.111998c-0.56-1.383999-1.112-2.783999-1.679999-4.151998-0.536-1.351999-1.072-2.711999-1.631999-4.047999-0.56-1.383999-1.112-2.791999-1.68-4.167998-0.536-1.343999-1.072-2.703999-1.631999-4.039999-0.56-1.383999-1.104-2.783999-1.679999-4.151998-0.536-1.359999-1.072-2.719999-1.632-4.047998-0.56-1.391999-1.104-2.791999-1.679999-4.167999-0.52-1.295999-1.024-2.599999-1.568-3.895998-0.56-1.415999-1.12-2.831999-1.703999-4.231999-0.56-1.391999-1.112-2.783999-1.687999-4.167998-0.544-1.343999-1.072-2.703999-1.624-4.039998-0.56-1.383999-1.112-2.783999-1.687999-4.159999-0.544-1.343999-1.072-2.703999-1.623999-4.047998-0.56-1.375999-1.112-2.783999-1.688-4.159999-0.544-1.343999-1.072-2.703999-1.623999-4.039998-0.56-1.383999-1.104-2.775999-1.687999-4.151998-0.536-1.359999-1.072-2.719999-1.624-4.047999-0.56-1.391999-1.112-2.791999-1.687999-4.159998-0.536-1.351999-1.072-2.719999-1.623999-4.047999-0.552-1.375999-1.096-2.751999-1.656-4.111998-0.56-1.383999-1.112-2.775999-1.687999-4.151998-0.536-1.351999-1.064-2.711999-1.623999-4.047999-0.536-1.335999-1.064-2.679999-1.616-4.007998-0.56-1.407999-1.104-2.815999-1.687999-4.183999-0.56-1.383999-1.104-2.783999-1.68-4.151998-0.544-1.351999-1.08-2.711999-1.631999-4.055998-0.56-1.375999-1.104-2.767999-1.679999-4.151999-0.544-1.351999-1.08-2.711999-1.632-4.047998-0.552-1.367999-1.088-2.751999-1.655999-4.103999-0.56-1.391999-1.104-2.783999-1.679999-4.159998-0.544-1.351999-1.08-2.711999-1.632-4.047998-0.552-1.383999-1.104-2.775999-1.679999-4.151999-0.544-1.343999-1.08-2.703999-1.631999-4.047998-0.552-1.383999-1.096-2.775999-1.68-4.151999-0.544-1.351999-1.072-2.711999-1.631999-4.047998-0.552-1.383999-1.096-2.783999-1.679999-4.151998-0.544-1.351999-1.072-2.711999-1.632-4.047999-0.536-1.319999-1.048-2.655999-1.583999-3.967998-0.576-1.423999-1.144-2.863999-1.743999-4.279999-0.536-1.351999-1.072-2.711999-1.632-4.047998-0.56-1.383999-1.104-2.775999-1.679999-4.151998-0.536-1.343999-1.072-2.703999-1.632-4.047999-0.56-1.383999-1.096-2.775999-1.671999-4.151998-0.544-1.351999-1.08-2.711999-1.639999-4.047999-0.56-1.383999-1.104-2.775999-1.672-4.151998-0.544-1.351999-1.08-2.711999-1.639999-4.047998-0.544-1.375999-1.088-2.759999-1.655999-4.119999-0.552-1.367999-1.096-2.759999-1.672-4.119998-0.544-1.359999-1.08-2.727999-1.639999-4.079999-0.552-1.375999-1.096-2.759999-1.671999-4.119998-0.544-1.359999-1.08-2.727999-1.64-4.079998-0.552-1.367999-1.096-2.743999-1.655999-4.103999-0.528-1.319999-1.048-2.647999-1.591999-3.959998-0.576-1.415999-1.128-2.839999-1.72-4.247999-0.552-1.359999-1.08-2.735999-1.647999-4.079998-0.552-1.375999-1.088-2.759999-1.664-4.119998-0.552-1.359999-1.08-2.735999-1.647999-4.079999-0.552-1.367999-1.088-2.743999-1.655999-4.103998-0.552-1.367999-1.088-2.751999-1.664-4.119999-41.455984-102.39996-140.991945-174.575932-257.255899-174.575931-133.943948 0-245.751904 95.767963-272.031894 223.199913l-2.495999-0.016c-3.639999 0-7.231997 0.144-10.831996 0.359999-0.888 0.056-1.799999 0.136-2.695999 0.2-2.911999 0.216-5.831998 0.504-8.719996 0.872l-1.895999 0.232C178.47193 460.37582 111.999956 534.007791 111.999956 623.487756c0 24.68799 5.071998 48.167981 14.199995 69.479973 0.536 1.351999 1.072 2.711999 1.639999 4.039999 0.536 1.375999 1.08 2.751999 1.655999 4.111998 0.544 1.391999 1.096 2.783999 1.672 4.159999 0.536 1.351999 1.064 2.711999 1.639999 4.039998 0.544 1.391999 1.096 2.791999 1.671999 4.167998 0.512 1.295999 1.016 2.607999 1.568 3.895999 0.568 1.447999 1.136 2.871999 1.743999 4.287998 0.528 1.351999 1.064 2.711999 1.624 4.039999 0.552 1.391999 1.096 2.791999 1.687999 4.167998 0.528 1.343999 1.064 2.703999 1.623999 4.031998 0.552 1.399999 1.096 2.799999 1.688 4.167999 0.528 1.351999 1.064 2.711999 1.623999 4.039998 0.544 1.375999 1.08 2.751999 1.655999 4.111999 0.552 1.391999 1.096 2.791999 1.68 4.159998 0.536 1.351999 1.072 2.711999 1.631999 4.039998 0.544 1.399999 1.096 2.791999 1.679999 4.167999 0.536 1.351999 1.072 2.711999 1.632 4.039998 0.544 1.391999 1.096 2.791999 1.679999 4.159998 0.536 1.351999 1.064 2.711999 1.631999 4.039999 0.544 1.391999 1.088 2.799999 1.68 4.167998 0.504 1.303999 1.016 2.615999 1.567999 3.895999 0.56 1.423999 1.112 2.831999 1.711999 4.231998 0.552 1.391999 1.096 2.799999 1.68 4.167998 0.528 1.351999 1.064 2.711999 1.631999 4.039999 0.552 1.391999 1.096 2.791999 1.68 4.159998 0.528 1.359999 1.064 2.719999 1.623999 4.047999 0.56 1.391999 1.104 2.791999 1.687999 4.159998 0.528 1.351999 1.064 2.711999 1.624 4.039998 0.56 1.391999 1.104 2.791999 1.687999 4.167999 0.528 1.343999 1.064 2.703999 1.623999 4.031998 0.544 1.383999 1.088 2.759999 1.656 4.111999 0.552 1.391999 1.104 2.799999 1.687999 4.159998 0.528 1.359999 1.064 2.719999 1.623999 4.047998 0.552 1.391999 1.104 2.791999 1.688 4.159999 0.528 1.351999 1.064 2.711999 1.623999 4.039998 0.528 1.343999 1.048 2.695999 1.623999 4.023999 0.544 1.407999 1.096 2.799999 1.688 4.167998 0.544 1.391999 1.08 2.791999 1.671999 4.159998 0.536 1.359999 1.064 2.719999 1.639999 4.047999 0.536 1.375999 1.064 2.751999 1.648 4.095998 0.552 1.399999 1.088 2.799999 1.679999 4.167999 0.536 1.351999 1.064 2.711999 1.632 4.039998 0.552 1.391999 1.088 2.799999 1.679999 4.167998 0.536 1.351999 1.064 2.711999 1.631999 4.039999 0.552 1.391999 1.088 2.791999 1.68 4.159998 0.536 1.359999 1.064 2.719999 1.631999 4.047999 0.552 1.391999 1.088 2.791999 1.679999 4.159998 0.528 1.351999 1.064 2.711999 1.632 4.039998 0.552 1.391999 1.088 2.791999 1.679999 4.167999 0.528 1.343999 1.064 2.703999 1.631999 4.031998 0.52 1.327999 1.032 2.671999 1.584 3.967999 0.576 1.447999 1.136 2.871999 1.743999 4.295998 0.536 1.343999 1.064 2.703999 1.631999 4.031998 0.544 1.399999 1.096 2.799999 1.68 4.167999 0.536 1.351999 1.064 2.711999 1.631999 4.039998 0.544 1.391999 1.096 2.799999 1.679999 4.159999 0.536 1.359999 1.064 2.719999 1.632 4.047998 0.544 1.391999 1.096 2.791999 1.671999 4.159998 0.544 1.359999 1.072 2.719999 1.64 4.047999l0.311999 0.775999A511.3598 511.3598 0 0 0 511.9998 1023.9996c195.687924 0 365.663857-109.831957 451.839824-271.159894z" fill="#233540" p-id="9260"></path><path d="M840.095672 529.799793c0.736-8.311997 1.168-16.719993 1.167999-25.23199 0-155.063939-124.415951-280.78389-277.887891-280.78389-133.975948 0-245.807904 95.815963-272.055894 223.295912-0.832 0-1.639999-0.112-2.471999-0.112C191.167925 446.967825 111.999956 525.815795 111.999956 623.487756S191.167925 799.999688 288.839887 799.999688h476.623814C846.407669 799.999688 911.999644 735.111713 911.999644 654.663744c0-53.319979-28.903989-99.495961-71.903972-124.863951z" fill="#F5F5F5" p-id="9261"></path><path d="M575.999775 655.999744a15.999994 15.999994 0 0 1-15.999994-15.999994V463.999819a15.999994 15.999994 0 0 1 31.999988 0v175.999931a15.999994 15.999994 0 0 1-15.999994 15.999994z" fill="#2D4452" p-id="9262"></path><path d="M631.999753 535.999791a15.935994 15.935994 0 0 1-11.311995-4.687999L575.999775 486.63181l-44.687983 44.679982a15.999994 15.999994 0 1 1-22.623991-22.623991l55.999978-55.999978a15.999994 15.999994 0 0 1 22.623992 0l55.999978 55.999978A15.999994 15.999994 0 0 1 631.999753 535.999791z" fill="#2D4452" p-id="9263"></path></svg>